<svg version="1.2" baseProfile="tiny-ps" xmlns="http://www.w3.org/2000/svg" viewBox="0 0 513 513" width="513" height="513">
	<title>fruits-svg</title>
	<style>
		tspan { white-space:pre }
		.shp0 { fill: #d26a22 } 
	</style>
	<g id="Layer">
		<path id="Layer" fill-rule="evenodd" class="shp0" d="M472.95 264.19C498.14 289.03 512.02 322.2 512.02 357.57C512.02 392.94 498.15 426.1 472.97 450.93C448.23 475.33 415.6 488.69 380.91 488.69C367.03 488.69 353.36 486.5 340.26 482.18C328.8 487.02 316.22 489.7 303.02 489.7C286.07 489.7 270.14 485.28 256.31 477.54C237.36 488.7 218.17 492.79 198.28 487.53C195.4 486.77 192.56 485.81 189.81 484.66C176.46 479.08 161.15 479.08 147.8 484.66C145.06 485.81 142.21 486.77 139.34 487.53C108.68 495.63 73.93 480.4 46.37 446.79C43.74 443.59 44.21 438.86 47.41 436.24C50.62 433.61 55.34 434.08 57.97 437.28C81.7 466.23 110.69 479.59 135.5 473.03C137.72 472.44 139.91 471.7 142.02 470.82C159.04 463.71 178.57 463.7 195.59 470.82C197.7 471.7 199.9 472.45 202.11 473.03C214.83 476.39 228.56 474.65 242.34 468.03C220.8 450.41 207.02 423.64 207.02 393.7C207.02 340.77 250.09 297.7 303.02 297.7C355.96 297.7 399.02 340.77 399.02 393.7C399.02 425.74 383.24 454.16 359.06 471.6C365.68 472.88 372.42 473.59 379.24 473.68C410.6 474.14 440.13 462.25 462.44 440.25C484.74 418.26 497.02 388.89 497.02 357.57C497.02 326.24 484.73 296.87 462.42 274.87C454.65 267.21 450.39 256.49 450.74 245.45C451.78 211.95 428.67 183.04 397.54 175.41C396.32 185.87 394.42 196.27 391.81 206.57C397.48 206.05 403.12 205.1 408.65 203.73C412.66 202.73 416.73 205.17 417.73 209.19C418.73 213.21 416.29 217.28 412.27 218.28C392.25 223.26 371.07 223.27 351.06 218.28C347.04 217.28 344.59 213.21 345.59 209.19C346.59 205.17 350.66 202.72 354.68 203.73C361.74 205.48 368.96 206.52 376.22 206.88C379.22 195.85 381.37 184.68 382.67 173.44C342.95 172.42 309.81 205.41 311.06 245.42C311.4 256.5 307.13 267.23 299.33 274.92C296.38 277.83 291.63 277.79 288.72 274.85C285.81 271.9 285.85 267.15 288.8 264.24C293.63 259.47 296.28 252.8 296.07 245.94C295.91 240.92 296.22 235.76 296.94 230.89C289.31 222.51 280.44 216.93 270.51 214.31C257.17 210.78 242.44 212.92 227.91 220.49C211.58 229 193.85 233.75 175.96 234.75C175.18 246.32 175.16 257.94 175.9 269.55C181.45 269.14 186.98 268.27 192.39 266.92C196.4 265.92 200.47 268.37 201.47 272.39C202.47 276.41 200.03 280.48 196.01 281.48C187.17 283.68 178.08 284.8 168.98 284.81L168.81 284.81C159.65 284.81 150.5 283.69 141.61 281.48C137.59 280.48 135.14 276.41 136.14 272.39C137.14 268.37 141.21 265.92 145.23 266.92C150.36 268.2 155.6 269.05 160.87 269.48C160.17 257.88 160.19 246.27 160.93 234.71C143.29 233.62 125.82 228.89 109.72 220.49C95.17 212.92 80.44 210.79 67.11 214.31C46.57 219.74 30.45 237.92 21.74 265.51C12.64 294.29 12.74 329.49 22.03 364.62C26.24 380.52 32.11 395.59 39.49 409.4C41.45 413.05 40.07 417.59 36.42 419.55C32.82 421.47 28.24 420.16 26.27 416.47C18.34 401.63 12.03 385.48 7.53 368.46C-2.48 330.62 -2.51 292.45 7.43 260.99C17.76 228.32 37.59 206.6 63.28 199.81C80.28 195.31 98.73 197.86 116.65 207.19C131 214.67 146.57 218.86 162.29 219.77C163.26 211.61 164.57 203.5 166.25 195.44C166.61 193.71 166.99 191.99 167.38 190.27C142.6 191.17 117.71 181.02 98.86 162.18C78.66 141.97 68.32 114.08 71.2 87.57C71.88 81.38 76.87 76.39 83.06 75.71C109.56 72.83 137.46 83.16 157.67 103.37C169.44 115.14 177.78 129.26 182.19 144.18C185.69 135.85 189.58 127.67 193.88 119.69C195.85 116.04 200.4 114.67 204.04 116.64C207.69 118.6 209.05 123.15 207.09 126.8C194.95 149.33 186.15 173.46 180.93 198.5C179.47 205.5 178.31 212.54 177.42 219.61C192.43 218.47 207.26 214.33 220.98 207.19C238.88 197.86 257.33 195.31 274.34 199.81C284.2 202.41 293.19 207.21 301.18 214.11C313.47 180.7 346.33 157.04 383.89 158.47C384.32 149.51 384.22 140.52 383.57 131.52C381.1 97.33 370.52 63.44 353 33.51C350.91 29.93 352.11 25.34 355.68 23.24C359.25 21.15 363.85 22.35 365.94 25.93C372.92 37.83 378.86 50.33 383.7 63.22C386.82 56.66 391.14 50.52 396.54 45.12L396.54 45.12C409.21 32.44 426.14 25.64 443 26.47C450.32 26.83 456.12 32.62 456.47 39.95C457.3 56.8 450.5 73.73 437.83 86.41C426.04 98.19 410.7 104.81 395.29 105.11C396.82 113.5 397.92 121.96 398.53 130.44C399.26 140.42 399.34 150.38 398.82 160.31C437.83 168.75 467.02 204.42 465.73 245.96C465.51 252.79 468.14 259.46 472.95 264.19ZM170.69 164.6C169.57 146.31 161.26 128.18 147.06 113.98C130.37 97.29 107.63 88.58 85.99 90.5C84.06 112.14 92.78 134.88 109.47 151.57C123.67 165.77 141.8 174.08 160.09 175.2L126.34 141.45C123.41 138.53 123.41 133.78 126.34 130.85C129.27 127.92 134.02 127.92 136.94 130.85L170.69 164.6ZM427.22 75.8C436.72 66.3 441.9 53.81 441.52 41.42C429.13 41.04 416.64 46.23 407.14 55.73L407.14 55.73C397.56 65.31 392.42 77.84 392.83 90.12C405.11 90.54 417.63 85.39 427.22 75.8ZM384.02 393.7C384.02 349.04 347.69 312.7 303.02 312.7C258.36 312.7 222.02 349.04 222.02 393.7C222.02 438.36 258.36 474.7 303.02 474.7C347.69 474.7 384.02 438.36 384.02 393.7ZM353.41 352.9C362.71 361.36 363.2 376.53 354.19 385.46L307.35 432.3C302.17 437.49 295.26 440.35 287.91 440.35C280.56 440.35 273.65 437.49 268.47 432.31L251.85 415.69C243.08 406.91 243.08 392.64 251.85 383.87C260.51 375.21 275.04 375.15 283.67 383.87L287.91 388.11L322.08 353.94C330.75 345.27 344.52 344.81 353.41 352.9ZM343.32 363.99C340.41 361.35 335.64 361.6 332.68 364.55L295.34 401.9C291.32 405.96 284.48 405.94 280.49 401.9L273.06 394.47C270.19 391.57 265.35 391.59 262.46 394.48C259.53 397.4 259.53 402.16 262.46 405.08L279.07 421.7C281.43 424.05 284.57 425.35 287.91 425.35C291.26 425.35 294.39 424.05 296.75 421.7L343.59 374.86C346.6 371.88 346.44 366.83 343.32 363.99Z" />
	</g>
</svg>