<svg version="1.2" baseProfile="tiny-ps" xmlns="http://www.w3.org/2000/svg" viewBox="0 0 513 512" width="513" height="512">
	<title>good-svg</title>
	<style>
		tspan { white-space:pre }
		.shp0 { fill: #d26a22 } 
	</style>
	<path id="Layer" fill-rule="evenodd" class="shp0" d="M342.73 194.02C343.86 202.28 341.49 210.7 336.22 217.11L325.47 230.15C347.05 232.43 363.91 250.74 363.91 272.91L363.91 326.71C363.91 354.36 341.42 376.85 313.77 376.85L230.9 376.85C222.7 376.85 215.32 373.29 210.21 367.64C206.38 370.58 201.59 372.33 196.39 372.33L168.6 372.33C157.29 372.33 148.09 363.13 148.09 351.82L148.09 252.2C148.09 240.89 157.29 231.69 168.6 231.69L196.39 231.69C202.27 231.69 207.64 233.93 211.69 237.61C223.46 226.4 236.56 230.97 247.89 229.91L289.71 179.42C306.41 159.13 339.17 168.02 342.73 194.02ZM203.01 254.48C203.01 250.83 200.04 247.86 196.39 247.86L168.6 247.86C166.2 247.86 164.26 249.81 164.26 252.2L164.26 351.82C164.26 354.21 166.2 356.16 168.6 356.16L196.39 356.16C200.04 356.16 203.01 353.19 203.01 349.54L203.01 254.48ZM310.04 223.45C322.71 207.61 327.87 204.68 326.71 196.21C325.05 184.11 309.95 180.28 302.18 189.71L259.68 241.02C257.04 244.22 253.12 246.07 248.95 246.07L230.89 246.07C224.43 246.07 219.18 251.33 219.18 257.79L219.18 348.96C219.18 355.42 224.43 360.68 230.89 360.68L313.77 360.68C332.5 360.68 347.74 345.44 347.74 326.71L347.74 272.91C347.74 258.11 335.7 246.07 320.9 246.07C309.21 246.07 302.75 232.55 310.04 223.45Z" />
	<path id="Layer" fill-rule="evenodd" class="shp0" d="M124.34 182.01C120.97 184.51 116.22 183.81 113.73 180.45C111.23 177.09 111.93 172.34 115.29 169.84C149.42 144.47 188.96 129.16 230.85 124.94L230.85 99.51L226.72 99.51C210.58 99.51 197.46 86.38 197.46 70.25C197.46 54.13 210.58 41 226.72 41L285.28 41C301.42 41 314.54 54.13 314.54 70.25C314.54 86.38 301.42 99.51 285.28 99.51L281.15 99.51L281.15 124.95C393.18 136.34 483.27 227.29 490.72 342.43C490.99 346.61 487.82 350.21 483.65 350.48C483.48 350.5 483.31 350.5 483.15 350.5C479.19 350.5 475.86 347.42 475.59 343.41C467.74 221.9 360.04 126.14 230.85 140.18C192.25 144.34 155.82 158.6 124.34 182.01ZM265.99 99.51L246.01 99.51L246.01 123.9C251.75 123.68 260.13 123.66 265.99 123.91L265.99 99.51ZM285.28 84.35C293.05 84.35 299.38 78.02 299.38 70.25C299.38 62.48 293.05 56.16 285.28 56.16L226.72 56.16C218.95 56.16 212.62 62.48 212.62 70.25C212.62 78.02 218.95 84.35 226.72 84.35C244.5 84.35 267.43 84.35 285.28 84.35Z" />
	<path id="Layer" class="shp0" d="M491.21 401.73C503.47 407.41 512 419.82 512 434.19L512 435.1C512 454.82 495.96 470.86 476.24 470.86L88.84 470.86C84.65 470.86 81.26 467.47 81.26 463.29C81.26 459.1 84.65 455.71 88.84 455.71L476.24 455.71C487.6 455.71 496.84 446.46 496.84 435.1L496.84 434.19C496.84 422.85 487.63 413.62 476.29 413.59L35.71 413.59C24.38 413.62 15.16 422.85 15.16 434.19L15.16 435.1C15.16 446.46 24.4 455.71 35.76 455.71L58.52 455.71C62.71 455.71 66.1 459.1 66.1 463.29C66.1 467.47 62.71 470.86 58.52 470.86L35.76 470.86C16.04 470.86 0 454.82 0 435.1L0 434.19C0 419.82 8.53 407.41 20.79 401.73L20.79 357.73C20.79 294.09 45.89 234.57 91.48 190.16C94.47 187.23 99.27 187.29 102.19 190.29C105.11 193.29 105.05 198.09 102.05 201.01C59.43 242.56 35.94 298.21 35.94 357.73L35.94 398.43L476.06 398.43L476.06 373.22C476.06 369.04 479.44 365.64 483.64 365.64C487.82 365.64 491.21 369.04 491.21 373.22L491.21 401.73L491.21 401.73Z" />
</svg>