<svg version="1.2" baseProfile="tiny-ps" xmlns="http://www.w3.org/2000/svg" viewBox="0 0 512 512" width="512" height="512">
	<title>instagram-svg</title>
	<style>
		tspan { white-space:pre }
		.shp0 { fill: #27300f } 
	</style>
	<g id="Layer">
		<g id="Layer">
			<path id="Layer" fill-rule="evenodd" class="shp0" d="M512 160L512 352C512 440.35 440.35 512 352 512L160 512C71.65 512 0 440.35 0 352L0 160C0 71.65 71.65 0 160 0L352 0C440.35 0 512 71.65 512 160ZM464 160C464 98.24 413.76 48 352 48L160 48C98.24 48 48 98.24 48 160L48 352C48 413.76 98.24 464 160 464L352 464C413.76 464 464 413.76 464 352L464 160Z" />
		</g>
	</g>
	<g id="Layer">
		<g id="Layer">
			<path id="Layer" fill-rule="evenodd" class="shp0" d="M384 256C384 326.69 326.69 384 256 384C185.31 384 128 326.69 128 256C128 185.31 185.31 128 256 128C326.69 128 384 185.31 384 256ZM336 256C336 211.87 300.1 176 256 176C211.9 176 176 211.87 176 256C176 300.1 211.9 336 256 336C300.1 336 336 300.1 336 256Z" />
		</g>
	</g>
	<g id="Layer">
		<g id="Layer">
			<path id="Layer" class="shp0" d="M393.6 135.46C384.17 135.46 376.54 127.83 376.54 118.4C376.54 108.97 384.17 101.34 393.6 101.34C403.03 101.34 410.66 108.97 410.66 118.4C410.66 127.83 403.03 135.46 393.6 135.46Z" />
		</g>
	</g>
	<g id="Layer">
	</g>
	<g id="Layer">
	</g>
	<g id="Layer">
	</g>
	<g id="Layer">
	</g>
	<g id="Layer">
	</g>
	<g id="Layer">
	</g>
	<g id="Layer">
	</g>
	<g id="Layer">
	</g>
	<g id="Layer">
	</g>
	<g id="Layer">
	</g>
	<g id="Layer">
	</g>
	<g id="Layer">
	</g>
	<g id="Layer">
	</g>
	<g id="Layer">
	</g>
	<g id="Layer">
	</g>
</svg>