<svg version="1.2" baseProfile="tiny-ps" xmlns="http://www.w3.org/2000/svg" viewBox="0 0 480 326" width="480" height="326">
	<title>mail-svg</title>
	<style>
		tspan { white-space:pre }
		.shp0 { fill: #d26a22 } 
	</style>
	<g id="Layer">
		<g id="Layer">
			<path id="Layer" fill-rule="evenodd" class="shp0" d="M480 43L480 283C479.97 305.08 462.08 322.97 440 323L40 323C17.92 322.97 0.03 305.08 0 283L0 43C0.03 20.92 17.92 3.03 40 3L440 3C462.08 3.03 479.97 20.92 480 43ZM464 43C464 29.75 453.25 19 440 19L40 19C26.74 19 16 29.75 16 43L16 283C16 296.25 26.74 307 40 307L440 307C453.25 307 464 296.25 464 283L464 43Z" />
		</g>
	</g>
	<g id="Layer">
		<g id="Layer">
			<path id="Layer" class="shp0" d="M444.12 49.86L268.8 155.04C251.08 165.69 228.92 165.69 211.2 155.04L35.88 49.86C32.23 47.57 31.04 42.81 33.19 39.08C35.4 35.25 40.29 33.94 44.12 36.14L219.42 141.32C232.08 148.94 247.92 148.94 260.58 141.32L435.88 36.14C439.67 33.87 444.58 35.09 446.86 38.88C449.13 42.67 447.91 47.58 444.12 49.86Z" />
		</g>
	</g>
	<g id="Layer">
		<g id="Layer">
			<path id="Layer" class="shp0" d="M48 75L48 283C48 287.42 44.42 291 40 291C35.58 291 32 287.42 32 283L32 75C32 70.58 35.58 67 40 67C44.42 67 48 70.58 48 75Z" />
		</g>
	</g>
	<g id="Layer">
		<g id="Layer">
			<path id="Layer" class="shp0" d="M448 75L448 283C448 287.42 444.42 291 440 291C435.58 291 432 287.42 432 283L432 75C432 70.58 435.58 67 440 67C444.42 67 448 70.58 448 75Z" />
		</g>
	</g>
	<g id="Layer">
	</g>
	<g id="Layer">
	</g>
	<g id="Layer">
	</g>
	<g id="Layer">
	</g>
	<g id="Layer">
	</g>
	<g id="Layer">
	</g>
	<g id="Layer">
	</g>
	<g id="Layer">
	</g>
	<g id="Layer">
	</g>
	<g id="Layer">
	</g>
	<g id="Layer">
	</g>
	<g id="Layer">
	</g>
	<g id="Layer">
	</g>
	<g id="Layer">
	</g>
	<g id="Layer">
		<text id="" style="transform: matrix(1,0,0,1,277,5)" >
		</text>
	</g>
</svg>