<svg version="1.2" baseProfile="tiny-ps" xmlns="http://www.w3.org/2000/svg" viewBox="0 0 504 308" width="504" height="308">
	<title>mastercard-svg</title>
	<style>
		tspan { white-space:pre }
		.shp0 { fill: #ffb600 } 
		.shp1 { fill: #f7981d } 
		.shp2 { fill: #ff8500 } 
		.shp3 { fill: #ff5050 } 
		.shp4 { fill: #e52836 } 
		.shp5 { fill: #cb2026 } 
		.shp6 { fill: #ffffff } 
		.shp7 { fill: #dce5e5 } 
	</style>
	<path id="Layer" class="shp0" d="M504 153C504 236.2 436.8 304.2 352.8 304.2C269.6 304.2 201.6 236.2 201.6 153L201.6 153C201.6 69.8 268.8 1.8 352 1.8C436.8 1.8 504 69.8 504 153L504 153Z" />
	<path id="Layer" class="shp1" d="M352.8 1.8C436 1.8 504 69.8 504 153L504 153C504 236.2 436.8 304.2 352.8 304.2C269.6 304.2 201.6 236.2 201.6 153" />
	<path id="Layer" class="shp2" d="M352.8 1.8C436 1.8 504 69.8 504 153L504 153C504 236.2 436.8 304.2 352.8 304.2" />
	<path id="Layer" class="shp3" d="M150.4 3.4C189.6 3.4 225.6 17.8 252 42.6C246.4 47.4 241.6 52.2 236.8 57.8L266.4 57.8C271.2 62.6 275.2 68.2 278.4 73.8L224.8 73.8C221.6 79.4 218.4 84.2 216 89.8L286.4 89.8C288.8 94.6 291.2 100.2 292.8 105.8L209.6 105.8C208 111.4 206.4 116.2 205.6 121.8L298.4 121.8C300 132.2 301.6 142.6 301.6 153.8C301.6 170.6 298.4 186.6 293.6 201.8L210.4 201.8C212 207.4 214.4 213 216.8 217.8L288 217.8C285.6 223.4 282.4 229 279.2 233.8L225.6 233.8C228.8 238.6 232.8 244.2 236.8 249L268 249C263.2 254.6 258.4 260.2 252.8 265L252.8 265L252.8 265C225.6 289 190.4 304.2 151.2 304.2C67.2 304.2 0 236.2 0 153C0 69.8 67.2 2.6 149.6 1.8C150.4 1.8 150.4 1.8 150.4 3.4Z" />
	<path id="Layer" class="shp4" d="M149.6 3.4L150.4 3.4C189.6 3.4 225.6 17.8 252 42.6C246.4 47.4 241.6 52.2 236.8 57.8L266.4 57.8C271.2 62.6 275.2 68.2 278.4 73.8L224.8 73.8C221.6 79.4 218.4 84.2 216 89.8L286.4 89.8C288.8 94.6 291.2 100.2 292.8 105.8L209.6 105.8C208 111.4 206.4 116.2 205.6 121.8L298.4 121.8C300 132.2 301.6 142.6 301.6 153.8C301.6 170.6 298.4 186.6 293.6 201.8L210.4 201.8C212 207.4 214.4 213 216.8 217.8L288 217.8C285.6 223.4 282.4 229 279.2 233.8L225.6 233.8C228.8 238.6 232.8 244.2 236.8 249L268 249C263.2 254.6 258.4 260.2 252.8 265L252.8 265L252.8 265C225.6 289 190.4 304.2 151.2 304.2C67.2 304.2 0 236.2 0 153" />
	<path id="Layer" class="shp5" d="M149.6 3.4L150.4 3.4C189.6 3.4 225.6 17.8 252 42.6C246.4 47.4 241.6 52.2 236.8 57.8L266.4 57.8C271.2 62.6 275.2 68.2 278.4 73.8L224.8 73.8C221.6 79.4 218.4 84.2 216 89.8L286.4 89.8C288.8 94.6 291.2 100.2 292.8 105.8L209.6 105.8C208 111.4 206.4 116.2 205.6 121.8L298.4 121.8C300 132.2 301.6 142.6 301.6 153.8C301.6 170.6 298.4 186.6 293.6 201.8L210.4 201.8C212 207.4 214.4 213 216.8 217.8L288 217.8C285.6 223.4 282.4 229 279.2 233.8L225.6 233.8C228.8 238.6 232.8 244.2 236.8 249L268 249C263.2 254.6 258.4 260.2 252.8 265L252.8 265L252.8 265C225.6 289 190.4 304.2 151.2 304.2" />
	<g id="Layer">
		<path id="Layer" class="shp6" d="M194.4 193.8C187.2 193.8 181.6 189.8 181.6 180.2C181.6 173.8 191.2 121 191.2 121L207.2 121L205.6 130.6L213.6 130.6L211.2 145.8L202.4 145.8L197.6 173.8C196.8 175.4 197.6 178.6 203.2 178.6C204.8 178.6 206.4 177.8 207.2 177.8L204.8 191.4C203.2 192.2 199.2 193.8 194.4 193.8Z" />
		<path id="Layer" fill-rule="evenodd" class="shp6" d="M239.2 129.8C256.8 129.8 262.4 142.6 262.4 153C262.4 157 260 167.4 260 167.4L227.2 167.4C227.2 167.4 224 180.2 241.6 180.2C249.6 180.2 258.4 176.2 258.4 176.2L255.2 191.4C255.2 191.4 250.4 193.8 238.4 193.8C225.6 193.8 210.4 188.2 210.4 165.8C210.4 145.8 222.4 128.2 239.2 129.8ZM228 153.8L245.6 153.8C245.6 153 247.2 142.6 238.4 142.6C229.6 142.6 228 153 228 153.8Z" />
		<path id="Layer" class="shp6" d="M324.8 193.8C305.6 193.8 296 180.2 296 160.2C296 129.8 314.4 113.8 332.8 113.8C341.6 113.8 351.2 117.8 351.2 117.8L348.8 134.6C348.8 134.6 342.4 129.8 334.4 129.8C323.2 129.8 313.6 140.2 313.6 159.4C313.6 169 318.4 177.8 329.6 177.8C335.2 177.8 343.2 173.8 343.2 173.8L340 191.4C340 191.4 331.2 193.8 324.8 193.8Z" />
		<path id="Layer" fill-rule="evenodd" class="shp6" d="M138.4 148.2L132 192.2L117.6 192.2L118.4 185.8C117.6 185.8 112.8 193 101.6 193C96 193 86.4 189.8 86.4 175.4C86.4 157 101.6 151.4 115.2 151.4C117.6 151.4 122.4 151.4 122.4 151.4C122.4 151.4 123.2 150.6 123.2 147.4C123.2 142.6 118.4 141.8 112.8 141.8C102.4 141.8 95.2 145 95.2 145L97.6 131.4C97.6 131.4 105.6 128.2 116.8 128.2C122.4 128.2 138.4 129 138.4 148.2ZM116.8 163.4C104.8 163.4 102.4 169 102.4 173C102.4 175.4 104 179.4 108.8 179.4C118.4 179.4 120 166.6 120 164.2C120 164.2 119.2 164.2 116.8 163.4Z" />
		<path id="Layer" class="shp6" d="M135.2 189.8L137.6 175.4C137.6 175.4 144.8 177.8 152 177.8C156 177.8 161.6 177 161.6 172.2C161.6 165 141.6 166.6 141.6 148.2C141.6 132.2 153.6 127.4 165.6 127.4C175.2 127.4 180.8 129 180.8 129L178.4 143.4C178.4 143.4 169.6 142.6 167.2 142.6C161.6 142.6 158.4 144.2 158.4 148.2C158.4 156.2 177.6 152.2 177.6 172.2C177.6 193.8 157.6 193 153.6 193C140 193 136 191.4 135.2 189.8Z" />
		<path id="Layer" fill-rule="evenodd" class="shp6" d="M489.6 116.2L477.6 193L461.6 193L462.4 187.4C462.4 187.4 456.8 193.8 447.2 193.8C433.6 193.8 427.2 180.2 427.2 167.4C427.2 146.6 440 129 454.4 129C463.2 129 469.6 137 469.6 137L472.8 115.4L489.6 116.2ZM456.8 144.2C449.6 144.2 444 152.2 444 165C444 173 447.2 177.8 452.8 177.8C461.6 177.8 465.6 166.6 465.6 157.8C465.6 148.2 462.4 144.2 456.8 144.2Z" />
		<path id="Layer" class="shp6" d="M14.4 192.2L27.2 115.4L50.4 115.4L51.2 162.6L67.2 115.4L93.6 115.4L80.8 192.2L64 192.2L72.8 134.6L52 192.2L40.8 192.2L39.2 134.6L29.6 192.2L14.4 192.2Z" />
		<path id="Layer" class="shp6" d="M277.6 193L260 193L270.4 130.6L285.6 130.6L284 139.4C284 139.4 289.6 129.8 296.8 129.8C299.2 129.8 300 129.8 300 129.8C298.4 133.8 296 137.8 294.4 148.2C283.2 144.2 282.4 165.8 277.6 192.2L277.6 193Z" />
		<path id="Layer" fill-rule="evenodd" class="shp6" d="M398.4 148.2L392 192.2L377.6 192.2L378.4 185.8C377.6 185.8 372.8 193 361.6 193C356 193 346.4 189.8 346.4 175.4C346.4 157 361.6 151.4 375.2 151.4C377.6 151.4 382.4 151.4 382.4 151.4C382.4 151.4 383.2 150.6 383.2 147.4C383.2 142.6 378.4 141.8 372.8 141.8C362.4 141.8 355.2 145 355.2 145L357.6 131.4C357.6 131.4 365.6 128.2 376.8 128.2C382.4 128.2 399.2 129 398.4 148.2ZM377.6 163.4C365.6 163.4 363.2 169 363.2 173C363.2 175.4 364.8 179.4 369.6 179.4C379.2 179.4 380.8 166.6 380.8 164.2C380 164.2 380 164.2 377.6 163.4Z" />
		<path id="Layer" class="shp6" d="M412 193L394.4 193L404.8 130.6L420 130.6L418.4 139.4C418.4 139.4 424 129.8 431.2 129.8C433.6 129.8 434.4 129.8 434.4 129.8C432.8 133.8 430.4 137.8 428.8 148.2C417.6 144.2 416.8 165.8 412 192.2L412 193Z" />
	</g>
	<g id="Layer">
		<path id="Layer" class="shp7" d="M207.2 121L205.6 130.6L213.6 130.6L211.2 145.8L202.4 145.8L197.6 173.8C196.8 175.4 197.6 178.6 203.2 178.6C204.8 178.6 206.4 177.8 207.2 177.8L204.8 191.4C203.2 192.2 198.4 193.8 192.8 193.8C185.6 193.8 180 189.8 180 180.2" />
		<path id="Layer" fill-rule="evenodd" class="shp7" d="M239.2 129.8C256.8 129.8 262.4 142.6 262.4 153C262.4 157 260 167.4 260 167.4L227.2 167.4C227.2 167.4 224 180.2 241.6 180.2C249.6 180.2 258.4 176.2 258.4 176.2L255.2 191.4C255.2 191.4 250.4 193.8 238.4 193.8C225.6 193.8 218.4 188.2 218.4 165.8C218.4 145.8 222.4 128.2 239.2 129.8ZM228 153.8L248.8 153.8C248.8 153 247.2 142.6 238.4 142.6C229.6 142.6 228 153 228 153.8Z" />
		<path id="Layer" class="shp7" d="M324.8 193.8C305.6 193.8 304 180.2 304 160.2C304 129.8 314.4 113.8 332.8 113.8C341.6 113.8 351.2 117.8 351.2 117.8L348.8 134.6C348.8 134.6 342.4 129.8 334.4 129.8C323.2 129.8 313.6 140.2 313.6 159.4C313.6 169 318.4 177.8 329.6 177.8C335.2 177.8 343.2 173.8 343.2 173.8L340 191.4C340 191.4 331.2 193.8 324.8 193.8Z" />
		<path id="Layer" fill-rule="evenodd" class="shp7" d="M116 129.8C122.4 129.8 138.4 130.6 138.4 149L132 193L117.6 193L118.4 186.6C117.6 186.6 112.8 193.8 101.6 193.8C96 193.8 86.4 190.6 86.4 176.2C86.4 157.8 101.6 152.2 115.2 152.2C117.6 152.2 122.4 152.2 122.4 152.2C122.4 152.2 123.2 151.4 123.2 148.2C123.2 143.4 118.4 142.6 112.8 142.6C102.4 142.6 95.2 145.8 95.2 145.8M116.8 163.4C104.8 163.4 102.4 169 102.4 173C102.4 175.4 104 179.4 108.8 179.4C118.4 179.4 128 166.6 128 164.2C128 164.2 119.2 164.2 116.8 163.4Z" />
		<path id="Layer" class="shp7" d="M152.8 177.8C156.8 177.8 162.4 177 162.4 172.2C162.4 165 150.4 166.6 150.4 148.2C150.4 132.2 154.4 127.4 166.4 127.4C176 127.4 181.6 129 181.6 129L179.2 143.4C179.2 143.4 170.4 142.6 168 142.6C162.4 142.6 159.2 144.2 159.2 148.2C159.2 156.2 178.4 152.2 178.4 172.2C178.4 193.8 158.4 193 154.4 193C140.8 193 136 191.4 136 191.4" />
		<path id="Layer" fill-rule="evenodd" class="shp7" d="M489.6 116.2L477.6 193L461.6 193L462.4 187.4C462.4 187.4 456.8 193.8 447.2 193.8C433.6 193.8 435.2 180.2 435.2 167.4C435.2 146.6 440 129 454.4 129C463.2 129 469.6 137 469.6 137M456.8 144.2C449.6 144.2 444 152.2 444 165C444 173 447.2 177.8 452.8 177.8C461.6 177.8 468.8 166.6 468.8 157.8C468.8 148.2 462.4 144.2 456.8 144.2Z" />
		<path id="Layer" class="shp7" d="M14.4 192.2L41.6 115.4L50.4 115.4L51.2 162.6L73.6 115.4L93.6 115.4L80.8 192.2L64 192.2L72.8 134.6L52 192.2L40.8 192.2L39.2 134.6L29.6 192.2L14.4 192.2Z" />
		<path id="Layer" class="shp7" d="M285.6 130.6L284 139.4C284 139.4 289.6 129.8 296.8 129.8C299.2 129.8 300 129.8 300 129.8C298.4 133.8 296 137.8 294.4 148.2C283.2 144.2 282.4 165.8 277.6 192.2L260.8 192.2" />
		<path id="Layer" fill-rule="evenodd" class="shp7" d="M376 129.8C382.4 129.8 398.4 130.6 398.4 149L392 193L377.6 193L378.4 186.6C377.6 186.6 372.8 193.8 361.6 193.8C356 193.8 346.4 190.6 346.4 176.2C346.4 157.8 361.6 152.2 375.2 152.2C377.6 152.2 382.4 152.2 382.4 152.2C382.4 152.2 383.2 151.4 383.2 148.2C383.2 143.4 378.4 142.6 372.8 142.6C362.4 142.6 355.2 145.8 355.2 145.8M376.8 163.4C364.8 163.4 362.4 169 362.4 173C362.4 175.4 364 179.4 368.8 179.4C378.4 179.4 388 166.6 388 164.2C388 164.2 380 164.2 376.8 163.4Z" />
		<path id="Layer" class="shp7" d="M420 130.6L418.4 139.4C418.4 139.4 424 129.8 431.2 129.8C433.6 129.8 434.4 129.8 434.4 129.8C432.8 133.8 430.4 137.8 428.8 148.2C417.6 144.2 416.8 165.8 412 192.2L395.2 192.2" />
	</g>
	<g id="Layer">
	</g>
	<g id="Layer">
	</g>
	<g id="Layer">
	</g>
	<g id="Layer">
	</g>
	<g id="Layer">
	</g>
	<g id="Layer">
	</g>
	<g id="Layer">
	</g>
	<g id="Layer">
	</g>
	<g id="Layer">
	</g>
	<g id="Layer">
	</g>
	<g id="Layer">
	</g>
	<g id="Layer">
	</g>
	<g id="Layer">
	</g>
	<g id="Layer">
	</g>
	<g id="Layer">
	</g>
</svg>