<svg version="1.2" baseProfile="tiny-ps" xmlns="http://www.w3.org/2000/svg" viewBox="0 0 512 443" width="512" height="443">
	<title>phone-svg</title>
	<style>
		tspan { white-space:pre }
		.shp0 { fill: #d26a22 } 
	</style>
	<g id="Layer">
		<path id="Layer" fill-rule="evenodd" class="shp0" d="M512 131.61L512 176.61C512 180.75 508.64 184.11 504.5 184.11L393.3 184.11C394.77 188.25 397.43 191.93 401 194.61L431 217.11C444.15 226.98 452 242.68 452 259.11L452 402.39C452 423.06 435.18 439.89 414.5 439.89L97.5 439.89C76.82 439.89 60 423.06 60 402.39L60 259.11C60 242.68 67.85 226.98 81 217.11L111 194.61C114.57 191.93 117.23 188.25 118.7 184.11L7.5 184.11C3.36 184.11 0 180.75 0 176.61L0 131.61C0 61.31 57.2 4.11 127.5 4.11L384.5 4.11C454.8 4.11 512 61.31 512 131.61ZM127.5 19.11C67.99 19.11 19.13 65.56 15.26 124.11L120 124.11L120 116.61C120 98.5 132.91 83.35 150 79.87L150 56.61C150 44.21 160.09 34.11 172.5 34.11C182.28 34.11 190.61 40.38 193.71 49.11L318.29 49.11C321.39 40.38 329.72 34.11 339.5 34.11C351.91 34.11 362 44.21 362 56.61L362 79.87C379.1 83.35 392 98.5 392 116.61L392 124.11L496.74 124.11C492.87 65.56 444.01 19.11 384.5 19.11L127.5 19.11ZM392 206.61C382.61 199.57 377 188.35 377 176.61L377 116.61C377 104.21 366.91 94.11 354.5 94.11C350.36 94.11 347 90.75 347 86.61L347 56.61C347 52.48 343.64 49.11 339.5 49.11C335.36 49.11 332 52.48 332 56.61L332 86.61C332 90.75 328.64 94.11 324.5 94.11L187.5 94.11C183.36 94.11 180 90.75 180 86.61L180 56.61C180 52.48 176.64 49.11 172.5 49.11C168.36 49.11 165 52.48 165 56.61L165 86.61C165 90.75 161.64 94.11 157.5 94.11C145.09 94.11 135 104.21 135 116.61L135 176.61C135 188.35 129.39 199.57 120 206.61L90 229.11C80.61 236.16 75 247.37 75 259.11L75 327.39C75 339.79 85.09 349.89 97.5 349.89C101.64 349.89 105 353.25 105 357.39C105 361.53 101.64 364.89 97.5 364.89C89.06 364.89 81.27 362.09 75 357.37L75 402.39C75 414.79 85.09 424.89 97.5 424.89L414.5 424.89C426.91 424.89 437 414.79 437 402.39L437 357.37C430.73 362.09 422.94 364.89 414.5 364.89L127.5 364.89C123.36 364.89 120 361.53 120 357.39C120 353.25 123.36 349.89 127.5 349.89L414.5 349.89C426.91 349.89 437 339.79 437 327.39L437 259.11C437 247.37 431.39 236.16 422 229.11L392 206.61ZM15 169.11L120 169.11L120 139.11L15 139.11L15 169.11ZM195 79.11L317 79.11L317 64.11L195 64.11L195 79.11ZM497 169.11L497 139.11L392 139.11L392 169.11L497 169.11Z" />
		<path id="Layer" fill-rule="evenodd" class="shp0" d="M368.5 221.61C368.5 283.65 318.03 334.11 256 334.11C193.97 334.11 143.5 283.65 143.5 221.61C143.5 159.58 193.97 109.11 256 109.11C318.03 109.11 368.5 159.58 368.5 221.61ZM353.5 221.61C353.5 167.85 309.76 124.11 256 124.11C202.24 124.11 158.5 167.85 158.5 221.61C158.5 275.38 202.24 319.11 256 319.11C309.76 319.11 353.5 275.38 353.5 221.61Z" />
		<path id="Layer" fill-rule="evenodd" class="shp0" d="M308.5 221.61C308.5 250.56 284.95 274.11 256 274.11C227.05 274.11 203.5 250.56 203.5 221.61C203.5 192.66 227.05 169.11 256 169.11C284.95 169.11 308.5 192.66 308.5 221.61ZM293.5 221.61C293.5 200.94 276.68 184.11 256 184.11C235.32 184.11 218.5 200.94 218.5 221.61C218.5 242.29 235.32 259.11 256 259.11C276.68 259.11 293.5 242.29 293.5 221.61Z" />
		<path id="Layer" fill-rule="evenodd" class="shp0" d="M338.5 221.61C338.5 267.1 301.49 304.11 256 304.11C210.51 304.11 173.5 267.1 173.5 221.61C173.5 176.12 210.51 139.11 256 139.11C301.49 139.11 338.5 176.12 338.5 221.61ZM323.5 221.61C323.5 184.39 293.22 154.11 256 154.11C218.78 154.11 188.5 184.39 188.5 221.61C188.5 258.83 218.78 289.11 256 289.11C293.22 289.11 323.5 258.83 323.5 221.61Z" />
	</g>
</svg>