<svg version="1.2" baseProfile="tiny-ps" xmlns="http://www.w3.org/2000/svg" viewBox="0 0 512 512" width="512" height="512">
	<title>plus-svg</title>
	<style>
		tspan { white-space:pre }
		.shp0 { fill: #27300f } 
	</style>
	<g id="Layer">
		<g id="Layer">
			<path id="Layer" class="shp0" d="M512 256C512 267.05 503.05 276 492 276L276 276L276 492C276 503.05 267.05 512 256 512C244.95 512 236 503.05 236 492L236 276L20 276C8.95 276 0 267.05 0 256C0 244.95 8.95 236 20 236L236 236L236 20C236 8.95 244.95 0 256 0C267.05 0 276 8.95 276 20L276 236L492 236C503.05 236 512 244.95 512 256Z" />
		</g>
	</g>
	<g id="Layer">
	</g>
	<g id="Layer">
	</g>
	<g id="Layer">
	</g>
	<g id="Layer">
	</g>
	<g id="Layer">
	</g>
	<g id="Layer">
	</g>
	<g id="Layer">
	</g>
	<g id="Layer">
	</g>
	<g id="Layer">
	</g>
	<g id="Layer">
	</g>
	<g id="Layer">
	</g>
	<g id="Layer">
	</g>
	<g id="Layer">
	</g>
	<g id="Layer">
	</g>
	<g id="Layer">
	</g>
</svg>