<svg version="1.2" baseProfile="tiny-ps" xmlns="http://www.w3.org/2000/svg" viewBox="0 0 461 461" width="461" height="461">
	<title>refresh-svg</title>
	<style>
		tspan { white-space:pre }
		.shp0 { fill: #27300f } 
	</style>
	<g id="Layer">
		<g id="Layer">
			<path id="Layer" class="shp0" d="M452.57 239.53C452.24 362.07 352.63 461.13 230.1 460.8C107.63 460.66 8.38 361.41 8.24 238.93C8.24 226.54 9.27 214.17 11.31 201.95C11.32 201.85 11.34 201.75 11.36 201.65C13.01 192.37 21.88 186.18 31.16 187.84C40.43 189.49 46.62 198.35 44.96 207.63C34.45 270.06 56.25 333.57 102.88 376.38C178.93 446.22 297.2 441.19 367.04 365.13C436.88 289.08 431.85 170.8 355.79 100.96C279.74 31.12 161.46 36.16 91.62 112.21L167.23 137.37C176.18 140.35 181.03 150.02 178.05 158.98C175.07 167.93 165.4 172.78 156.44 169.8L54.04 135.66C47.07 133.34 42.37 126.82 42.37 119.47L42.37 17.07C42.37 7.64 50.01 0 59.43 0C68.86 0 76.5 7.64 76.5 17.07L76.5 79.41C118.02 39.28 173.55 16.91 231.3 17.07C353.83 17.4 452.9 117 452.57 239.53Z" />
		</g>
	</g>
	<g id="Layer">
	</g>
	<g id="Layer">
	</g>
	<g id="Layer">
	</g>
	<g id="Layer">
	</g>
	<g id="Layer">
	</g>
	<g id="Layer">
	</g>
	<g id="Layer">
	</g>
	<g id="Layer">
	</g>
	<g id="Layer">
	</g>
	<g id="Layer">
	</g>
	<g id="Layer">
	</g>
	<g id="Layer">
	</g>
	<g id="Layer">
	</g>
	<g id="Layer">
	</g>
	<g id="Layer">
	</g>
</svg>