<svg version="1.2" baseProfile="tiny-ps" xmlns="http://www.w3.org/2000/svg" viewBox="0 0 512 512" width="512" height="512">
	<title>traditional-svg</title>
	<style>
		tspan { white-space:pre }
		.shp0 { fill: #d26a22 } 
	</style>
	<g id="Layer">
		<g id="Layer">
			<path id="Layer" fill-rule="evenodd" class="shp0" d="M512 256C512 324.38 485.37 388.67 437.02 437.02C388.67 485.37 324.38 512 256 512C187.62 512 123.33 485.37 74.98 437.02C26.63 388.67 0 324.38 0 256C0 187.62 26.63 123.33 74.98 74.98C123.33 26.63 187.62 0 256 0C324.38 0 388.67 26.63 437.02 74.98C485.37 123.33 512 187.62 512 256ZM497 256C497 191.63 471.93 131.11 426.41 85.59C380.89 40.07 320.37 15 256 15C191.63 15 131.11 40.07 85.59 85.59C40.07 131.11 15 191.63 15 256C15 320.37 40.07 380.89 85.59 426.41C131.11 471.93 191.63 497 256 497C320.37 497 380.89 471.93 426.41 426.41C471.93 380.89 497 320.37 497 256Z" />
		</g>
	</g>
	<g id="Layer">
		<g id="Layer">
			<path id="Layer" class="shp0" d="M382.4 115.93C379.75 119.11 375.01 119.54 371.83 116.88C337.3 88.06 293.43 73.23 248.29 75.15C202.88 77.07 160.16 95.84 128 128C95.84 160.16 77.07 202.88 75.15 248.29C73.23 293.42 88.06 337.3 116.88 371.83C119.53 375.01 119.11 379.74 115.93 382.4C114.53 383.57 112.82 384.14 111.13 384.14C108.98 384.14 106.85 383.22 105.37 381.44C74.14 344.04 58.09 296.52 60.16 247.65C62.24 198.48 82.57 152.22 117.4 117.39C152.22 82.57 198.48 62.24 247.65 60.16C296.51 58.09 344.04 74.14 381.45 105.37C384.63 108.02 385.05 112.75 382.4 115.93Z" />
		</g>
	</g>
	<g id="Layer">
		<g id="Layer">
			<path id="Layer" class="shp0" d="M451.84 264.35C449.76 313.52 429.43 359.78 394.6 394.61C359.78 429.43 313.52 449.76 264.35 451.84C261.54 451.96 258.74 452.02 255.95 452.02C210.05 452.02 165.81 436.07 130.55 406.64C127.37 403.98 126.95 399.25 129.6 396.07C132.26 392.89 136.98 392.47 140.17 395.12C174.7 423.95 218.57 438.77 263.71 436.85C309.12 434.93 351.84 416.16 384 384C416.16 351.84 434.93 309.12 436.85 263.71C438.76 218.58 423.94 174.7 395.12 140.16C392.46 136.99 392.89 132.25 396.07 129.6C399.25 126.95 403.98 127.37 406.63 130.55C437.86 167.96 453.91 215.47 451.84 264.35Z" />
		</g>
	</g>
	<g id="Layer">
		<g id="Layer">
			<path id="Layer" fill-rule="evenodd" class="shp0" d="M412.78 267.36L267.36 412.78C264.33 415.82 260.29 417.49 256 417.49C251.71 417.49 247.67 415.82 244.64 412.78L99.22 267.36C92.95 261.1 92.95 250.9 99.22 244.64L244.64 99.22C247.67 96.18 251.71 94.51 256 94.51C260.29 94.51 264.33 96.18 267.36 99.22L412.78 244.64C419.05 250.9 419.05 261.1 412.78 267.36ZM177.23 324.16L220.78 280.61C205.25 280.32 190.59 272.85 181.42 260.46C179.46 257.81 179.46 254.19 181.42 251.54C190.59 239.15 205.25 231.68 220.78 231.39L177.23 187.84L109.82 255.24C109.56 255.5 109.51 255.8 109.51 256C109.51 256.2 109.56 256.5 109.82 256.76L177.23 324.16ZM402.49 256C402.49 255.8 402.43 255.5 402.18 255.24L334.77 187.84L325.3 197.3C323.84 198.77 321.92 199.5 320 199.5C318.08 199.5 316.16 198.77 314.7 197.3C311.77 194.38 311.77 189.63 314.7 186.7L324.16 177.23L256.76 109.82C256.5 109.57 256.2 109.51 256 109.51C255.8 109.51 255.5 109.57 255.25 109.82L187.84 177.23L256 245.39L292.29 209.1C295.22 206.17 299.97 206.17 302.9 209.1C305.83 212.03 305.83 216.78 302.9 219.71L291.22 231.39C306.75 231.68 321.41 239.15 330.58 251.54C332.54 254.19 332.54 257.81 330.58 260.46C321.41 272.85 306.75 280.32 291.22 280.61L334.77 324.16L402.18 256.76C402.44 256.5 402.49 256.2 402.49 256ZM324.16 334.77L256 266.61L187.84 334.77L255.25 402.18C255.5 402.43 255.8 402.49 256 402.49C256.2 402.49 256.5 402.43 256.76 402.18L324.16 334.77ZM290.27 265.64C299.39 265.64 308.12 262.11 314.57 256C308.12 249.89 299.39 246.36 290.27 246.36C281.16 246.36 272.43 249.89 265.98 256C272.43 262.11 281.16 265.64 290.27 265.64ZM197.43 256C203.88 262.11 212.61 265.64 221.72 265.64C230.84 265.64 239.57 262.11 246.02 256C239.57 249.89 230.84 246.36 221.72 246.36C212.61 246.36 203.88 249.89 197.43 256Z" />
		</g>
	</g>
	<g id="Layer">
	</g>
	<g id="Layer">
	</g>
	<g id="Layer">
	</g>
	<g id="Layer">
	</g>
	<g id="Layer">
	</g>
	<g id="Layer">
	</g>
	<g id="Layer">
	</g>
	<g id="Layer">
	</g>
	<g id="Layer">
	</g>
	<g id="Layer">
	</g>
	<g id="Layer">
	</g>
	<g id="Layer">
	</g>
	<g id="Layer">
	</g>
	<g id="Layer">
	</g>
	<g id="Layer">
	</g>
</svg>