<svg version="1.2" baseProfile="tiny-ps" xmlns="http://www.w3.org/2000/svg" viewBox="0 0 504 149" width="504" height="149">
	<title>visa-svg</title>
	<style>
		tspan { white-space:pre }
		.shp0 { fill: #3c58bf } 
		.shp1 { fill: #293688 } 
		.shp2 { fill: #ffbc00 } 
		.shp3 { fill: #f7981d } 
		.shp4 { fill: #ed7c00 } 
		.shp5 { fill: #051244 } 
	</style>
	<path id="Layer" class="shp0" d="M184.8 146.4L210.4 2.4L250.4 2.4L225.6 146.4L184.8 146.4Z" />
	<path id="Layer" class="shp1" d="M184.8 146.4L217.6 2.4L250.4 2.4L225.6 146.4L184.8 146.4Z" />
	<path id="Layer" class="shp0" d="M370.4 4L364 35.2L360 33.6C352.8 30.4 343.2 28 329.6 28C313.6 28 306.4 34.4 306.4 40.8C306.4 48 315.2 52 329.6 59.2C353.6 69.6 364 82.4 364 99.2C364 129.6 336 149.6 293.6 149.6C275.2 149.6 257.6 145.6 248 141.6L253.6 108.8L259.2 111.2C272.8 116.8 281.6 119.2 297.6 119.2C308.8 119.2 321.6 114.4 321.6 104.8C321.6 98.4 316.8 93.6 300.8 86.4C284.8 79.2 264.8 68 264.8 46.4C264.8 17.6 293.6 -2.4 333.6 -2.4C349.6 -2.4 362.4 0.8 370.4 4L370.4 4Z" />
	<path id="Layer" class="shp1" d="M370.4 4L364 35.2L360 33.6C352.8 30.4 343.2 28 329.6 28C313.6 28 306.4 34.4 306.4 40.8C306.4 48 315.2 52 329.6 59.2C353.6 69.6 364 82.4 364 99.2C364 129.6 336 149.6 293.6 149.6C275.2 149.6 257.6 145.6 248 141.6L253.6 108.8L259.2 111.2C272.8 116.8 281.6 119.2 297.6 119.2C308.8 119.2 321.6 114.4 321.6 104.8C321.6 98.4 316.8 93.6 300.8 86.4C284.8 79.2 272 68 272 46.4C272 17.6 293.6 -2.4 333.6 -2.4C349.6 -2.4 362.4 0.8 370.4 4L370.4 4Z" />
	<path id="Layer" fill-rule="evenodd" class="shp0" d="M439.2 2.4L470.4 2.4L504 146.4L465.6 146.4L460.8 122.4L409.6 122.4L401.6 146.4L358.4 146.4L418.4 12.8C422.4 3.2 429.6 2.4 439.2 2.4ZM420.8 99.2L454.4 99.2C452.8 91.2 444.8 55.2 444.8 55.2L442.4 41.6C440 47.2 436.8 56 436.8 56C436.8 56 423.2 91.2 420.8 98.4L420.8 99.2Z" />
	<path id="Layer" fill-rule="evenodd" class="shp1" d="M448.8 2.4L470.4 2.4L504 146.4L465.6 146.4L460.8 122.4L409.6 122.4L401.6 146.4L358.4 146.4L428 12.8C432 3.2 439.2 2.4 448.8 2.4ZM420.8 99.2L454.4 99.2C452.8 91.2 444.8 55.2 444.8 55.2L442.4 41.6C440 47.2 436.8 56 436.8 56C436.8 56 424 90.4 420.8 98.4L420.8 99.2Z" />
	<path id="Layer" class="shp0" d="M152 3.2L195.2 3.2L130.4 147.2L87.2 147.2L51.2 19.2C76.8 32 100 58.4 107.2 82.4L111.2 103.2L152 3.2Z" />
	<path id="Layer" class="shp1" d="M160 3.2L195.2 3.2L130.4 147.2L87.2 147.2L51.2 19.2C76.8 32 100 58.4 107.2 82.4L111.2 103.2L160 3.2Z" />
	<path id="Layer" class="shp2" d="M0 2.4L74.4 2.4C83.2 2.4 90.4 4.8 92.8 14.4L107.2 82.4C93.6 46.4 58.4 16 7.2 4L0 2.4L0 2.4Z" />
	<path id="Layer" class="shp3" d="M74.4 9.6C83.2 9.6 91.2 15.2 93.6 24.8L107.2 81.6C93.6 45.6 51.2 14.4 0 2.4L0 2.4L74.4 9.6Z" />
	<path id="Layer" class="shp4" d="M80.8 27.2C92 31.2 95.2 40.8 97.6 50.4L107.2 81.6C93.6 45.6 51.2 14.4 0 2.4L0 2.4L80.8 27.2Z" />
	<g id="Layer">
		<path id="Layer" class="shp5" d="M131.2 146.4L88 146.4L52 18.4C77.6 31.2 100.8 57.6 108 81.6L111.2 101.6L124 71.2L151.2 98.4L131.2 146.4Z" />
		<path id="Layer" class="shp5" d="M184.8 146.4L191.2 111.2L225.6 146.4L184.8 146.4Z" />
		<path id="Layer" class="shp5" d="M352 130.4C340 143.2 319.2 150.4 293.6 150.4C275.2 150.4 257.6 146.4 248 142.4L253.6 109.6L259.2 112C272.8 117.6 281.6 120 297.6 120C308.8 120 321.6 115.2 321.6 105.6C322.4 102.4 320.8 100 317.6 96.8L317.6 96.8L352 130.4Z" />
		<path id="Layer" class="shp5" d="M442.4 41.6C440 47.2 436.8 56 436.8 56C436.8 56 424 90.4 420.8 98.4L454.4 98.4C452.8 90.4 444.8 54.4 444.8 54.4L442.4 41.6L490.4 88L504 146.4L465.6 146.4L460.8 122.4L409.6 122.4L401.6 146.4L364 146.4" />
	</g>
	<g id="Layer">
	</g>
	<g id="Layer">
	</g>
	<g id="Layer">
	</g>
	<g id="Layer">
	</g>
	<g id="Layer">
	</g>
	<g id="Layer">
	</g>
	<g id="Layer">
	</g>
	<g id="Layer">
	</g>
	<g id="Layer">
	</g>
	<g id="Layer">
	</g>
	<g id="Layer">
	</g>
	<g id="Layer">
	</g>
	<g id="Layer">
	</g>
	<g id="Layer">
	</g>
	<g id="Layer">
	</g>
</svg>