<svg version="1.2" baseProfile="tiny-ps" xmlns="http://www.w3.org/2000/svg" viewBox="0 0 512 293" width="512" height="293">
	<title>vk-svg</title>
	<style>
		tspan { white-space:pre }
		.shp0 { fill: #27300f} 
	</style>
	<g id="Layer">
		<g id="Layer">
			<path id="Layer" class="shp0" d="M488.58 291.81L420.2 292.77C420.2 292.77 405.51 295.68 386.18 282.4C360.61 264.83 336.49 219.2 317.7 225.15C298.63 231.2 299.24 272.25 299.24 272.25C299.24 272.25 299.4 281.02 295.05 285.69C290.34 290.78 281.09 291.81 281.09 291.81L250.5 291.81C250.5 291.81 182.98 295.87 123.5 233.95C58.66 166.4 1.38 32.41 1.38 32.41C1.38 32.41 -1.91 23.65 1.67 19.39C5.7 14.62 16.68 14.3 16.68 14.3L89.83 13.85C89.83 13.85 96.74 15.01 101.67 18.62C105.73 21.6 108.01 27.17 108.01 27.17C108.01 27.17 119.85 57.09 135.5 84.13C166.06 136.96 180.3 148.51 190.7 142.85C205.83 134.59 201.29 68.19 201.29 68.19C201.29 68.19 201.58 44.06 193.67 33.34C187.56 25.02 176.04 22.59 170.95 21.92C166.82 21.37 173.58 11.81 182.34 7.52C195.5 1.09 218.76 0.7 246.22 0.99C267.62 1.21 273.77 2.56 282.15 4.57C307.37 10.65 298.82 34.17 298.82 90.59C298.82 108.64 295.56 134.08 308.58 142.49C314.18 146.11 327.91 143.04 362.18 84.83C378.44 57.25 390.63 24.8 390.63 24.8C390.63 24.8 393.29 19.04 397.42 16.54C401.67 14.01 407.37 14.78 407.37 14.78L484.3 14.33C484.3 14.33 507.43 11.58 511.18 22.01C515.11 32.96 502.54 58.56 471.08 100.48C419.43 169.31 413.67 162.85 456.55 202.65C497.51 240.67 506.02 259.17 507.4 261.47C524.36 289.6 488.58 291.81 488.58 291.81Z" />
		</g>
	</g>
	<g id="Layer">
	</g>
	<g id="Layer">
	</g>
	<g id="Layer">
	</g>
	<g id="Layer">
	</g>
	<g id="Layer">
	</g>
	<g id="Layer">
	</g>
	<g id="Layer">
	</g>
	<g id="Layer">
	</g>
	<g id="Layer">
	</g>
	<g id="Layer">
	</g>
	<g id="Layer">
	</g>
	<g id="Layer">
	</g>
	<g id="Layer">
	</g>
	<g id="Layer">
	</g>
	<g id="Layer">
	</g>
</svg>